<svg id="energy-monitor-svg" viewBox="0 0 500 500" xmlns="http://www.w3.org/2000/svg" xmlns:svg="http://www.w3.org/2000/svg">
 <!-- Created with SVG-edit - http://svg-edit.googlecode.com/ -->

 <g>
  <title>Energy Monitor</title>
  <g stroke="null" id="svg_44">
   <path stroke="null" id="svg_45" fill="#00AC85" d="m257.22214,198.35132c-1.08548,-1.21222 -2.82713,-1.19221 -3.89909,0.03078l-48.06458,54.14792c-0.51997,0.59149 -1.49768,1.39279 -1.49768,2.22435l0,56.77908c0,1.74316 2.62151,2.88919 4.15662,2.88919l96.12825,0c1.53012,0 2.31528,-1.14551 2.31528,-2.88919l0,-56.77908c0,-0.85004 -0.07306,-1.66315 -0.60925,-2.25513l-48.52954,-54.14793l0,0l0,0.00003l0,-0.00002z"/>
   <path stroke="null" id="svg_46" fill="#00AC85" d="m324.49722,249.90295l-67.2453,-76.75879c-0.52267,-0.59302 -1.27264,-0.88852 -1.97121,-0.92751c-0.74455,0.00308 -1.30557,0.34064 -1.82553,0.94289l-24.73715,28.80072l0,-16.79759c0,-1.74214 -1.53827,-3.22368 -3.06842,-3.22368l-16.63499,0c-1.53285,0 -2.48033,1.48204 -2.48033,3.22368l0,42.47003l-19.40036,22.28206c-1.07242,1.24144 -1.12924,3.24368 -0.03789,4.46359c1.09406,1.21991 3.35522,1.20143 4.43034,-0.03694l20.5535,-23.18184c0,0 0,-0.00308 0,-0.00615l43.77222,-51.29721l64.99181,74.49751c0.54163,0.6156 1.11569,0.92751 1.82779,0.92751c0.70667,0 1.34885,-0.30524 1.88779,-0.92136c1.08325,-1.22556 1.01785,-3.22214 -0.06223,-4.45692l0,0l-0.00003,0z"/>
  </g>
  <text stroke="null" xml:space="preserve" text-anchor="middle" font-size="24" id="svg_60" y="286" x="254" stroke-width="0" fill="#ffffff">N/A</text>
  <g class="flowline" stroke-width="4" id="svg_31" stroke="black" transform="rotate(-24.4658, 166.32, 326.09)">
   <path d="m141.50786,326.09109l49.62479,0" id="svg_32" stroke="#81C225"/>
  </g>
  <g class="flowline" stroke-width="4" id="svg_91" transform="rotate(36.2916, 165.898, 177.609)" stroke="black">
   <path fill="#F1F1F1" d="m138.78979,177.60825l54.21762,0" id="svg_92" stroke="#c6c6c6"/>
  </g>
  <g stroke="black" class="flowline1" id="svg_52" stroke-width="4" transform="rotate(26.4182, 342.396, 324.488)">
   <path stroke="#c6c6c6" id="svg_53" d="m316.91617,324.48688l50.95911,0"/>
  </g>
  <path stroke="null" transform="rotate(89.8829, 428.988, 115.668)" d="m354.85995,115.66807l31.76962,-58.86871l84.71902,0l31.76962,58.86871l-31.76962,58.86871l-84.71902,0l-31.76962,-58.86871z" stroke-linecap="null" stroke-linejoin="null" stroke-dasharray="null" stroke-width="5" fill="#F1F1F1" id="svg_57"/>
  <g stroke="null" id="svg_43">
   <path d="m475.5062,98.39729l-30.035,-25.18983c-0.79999,-0.67086 -1.90192,-0.67086 -2.7019,0l-4.93747,4.14103l-4.93744,-4.14103c-0.80002,-0.67086 -1.90192,-0.67086 -2.70187,0l-4.81427,4.03765l-4.81427,-4.03765c-0.80011,-0.67086 -1.9021,-0.67086 -2.70169,0l-30.035,25.18983c-0.56186,0.4716 -0.8923,1.20948 -0.8923,1.99228l0,42.4109c0,1.37807 1.00446,2.49524 2.24356,2.49524l12.33066,0l12.57617,0l35.16342,0l12.33075,0l12.57608,0c1.23898,0 2.2435,-1.11714 2.2435,-2.49524l0,-42.4109c0,-0.78279 -0.33029,-1.52068 -0.89264,-1.99228l-0.00003,0l0,0l-0.00003,0l-0.00003,0l-0.00003,0l-0.00003,0l-0.00003,0l-0.00003,0l-0.00003,0l-0.00003,0zm-3.59451,41.90794l-8.08905,0l0,-39.91573c0,-0.78315 -0.33044,-1.52068 -0.89261,-1.99229l-21.37164,-17.92368l2.56186,-2.14877l27.79144,23.30842l0,38.67197l0,0l0,0l0,0.00003l0,0.00003l0,0.00003zm-20.41971,0l0,-39.91573c0,-0.78315 -0.33044,-1.52068 -0.89264,-1.99229l-21.49469,-18.0267l2.43909,-2.04538l27.79175,23.30843l0,38.67194l-7.84354,0l0,-0.00035l0.00003,0.00003l0,-0.00003l0,0.00003l0,0.00003l0,0.00003zm-28.60458,-0.00035l-6.55893,0l-0.78973,0l0,-18.09409l7.34866,0l0,18.09409zm4.48715,0l0,-20.58932c0,-1.37808 -1.00449,-2.49524 -2.24359,-2.49524l-11.83578,0c-1.23911,0 -2.24356,1.11715 -2.24356,2.49524l0,20.58932l-7.29932,0l-12.33066,0l0,-38.67197l27.79144,-23.30841l27.79175,23.30841l0,38.67197l-19.63028,0l0,0z" fill="#C6C6C6" stroke="null" id="svg_44"/>
  </g>
  <path stroke="null" transform="rotate(89.8829, 74.666, 116.67)" d="m3.87221,116.67076l30.34049,-58.19795l80.90795,0l30.34048,58.19795l-30.34048,58.19794l-80.90795,0l-30.34049,-58.19794z" stroke-linecap="null" stroke-linejoin="null" stroke-dasharray="null" stroke-width="5" fill="#F1F1F1" id="svg_70"/>
  <g id="svg_3" stroke="null">
   <path fill="#c6c6c6" d="m101.1785,90.93115l-56.69618,0l-4.02182,38.82249l65.74507,0l-5.02708,-38.82249l0.00001,0zm-56.04469,11.64783l0.97028,-9.35482l53.50393,0l1.23461,9.55486l-55.72749,0l0.01868,-0.20004l-0.00001,0zm-1.35028,13.03524l1.0927,-10.53474l56.26371,0l1.39281,10.73528l-58.76631,0l0.01709,-0.20053l0,-0.00001zm-1.20599,11.64041l0.94881,-9.14041l59.30531,0l1.20918,9.34245l-61.48197,0l0.01868,-0.20203l0,-0.00001l-0.00001,0z" id="svg_72" stroke="null"/>
   <polygon fill="#c6c6c6" points="57.185455322265625,101.64175415039062 57.821380615234375,94.26791381835938 55.981781005859375,94.23971557617188 55.347412109375,101.62191772460938 " id="svg_93" stroke="null"/>
   <polygon fill="#c6c6c6" points="56.18372344970703,114.23593139648438 56.819732666015625,106.86212158203125 54.981689453125,106.8319091796875 54.345733642578125,114.21810913085938 " id="svg_94" stroke="null"/>
   <polygon fill="#c6c6c6" points="55.02862548828125,126.49331665039062 55.66461181640625,119.11959838867188 53.825408935546875,119.0963134765625 53.19061279296875,126.47894287109375 " id="svg_95" stroke="null"/>
   <polygon fill="#c6c6c6" points="86.18000030517578,94.43280029296875 86.81442260742188,101.806640625 88.65403747558594,101.79226684570312 88.01800537109375,94.40606689453125 " id="svg_96" stroke="null"/>
   <polygon fill="#c6c6c6" points="87.17852783203125,107.0250244140625 87.81610107421875,114.39883422851562 89.6536865234375,114.38299560546875 89.01651000976562,107.00027465820312 " id="svg_97" stroke="null"/>
   <polygon fill="#c6c6c6" points="88.33639526367188,119.2899169921875 88.97119140625,126.66513061523438 90.8104248046875,126.64532470703125 90.17440795898438,119.26116943359375 " id="svg_98" stroke="null"/>
   <rect fill="#c6c6c6" height="7.22816" width="1.84515" y="94.40807" x="71.3901" id="svg_99" stroke="null"/>
   <rect fill="#c6c6c6" height="7.23162" width="1.84515" y="106.57482" x="71.3901" id="svg_100" stroke="null"/>
   <rect fill="#c6c6c6" height="7.23509" width="1.84515" y="119.60858" x="71.3901" id="svg_101" stroke="null"/>
   <path fill="#c6c6c6" d="m71.57493,135.19878l41.00521,0l-5.94647,-50.01629l-67.93286,0l-5.94766,50.01629l36.97664,0l0,17.32024l-14.5144,0.00546l0,2.25244l31.61209,0.04059l0,-2.29848l-15.25253,0l0,-17.32024l-0.00002,0l0,-0.00002zm-36.68368,-2.29649l0.02425,-0.202l5.37885,-45.22475l64.74656,0l5.40588,45.42677l-75.55555,0l0.00001,-0.00003l-0.00001,0l0.00001,0z" id="svg_102" stroke="null"/>
  </g>
  <path transform="rotate(89.8829, 431, 379)" d="m360.20557,379l30.34048,-56.19797l80.90796,0l30.34048,56.19797l-30.34048,56.19794l-80.90796,0l-30.34048,-56.19794z" stroke-linecap="null" stroke-linejoin="null" stroke-dasharray="null" stroke-width="5" fill="#F1F1F1" stroke="null" id="svg_103"/>
  <g id="svg_63" stroke="null">
   <path d="m469.2496,352.36115c0.41772,0 0.78262,-0.18954 0.89075,-0.46252c0.10562,-0.27213 -0.0752,-0.55914 -0.43781,-0.69748l-13.60434,-5.18604c-0.01636,-0.00711 -0.02692,-0.01779 -0.04602,-0.0249l-4.87201,-1.89789l0,-13.70139c0,-0.26837 -0.25452,-0.50558 -0.63248,-0.58917c-0.37698,-0.08426 -0.79343,0.00476 -1.02832,0.22025l-11.82608,10.80878l-12.47693,0.0217l-11.71518,-10.7067c-0.23587,-0.216 -0.65134,-0.30383 -1.02805,-0.22107c-0.37732,0.08426 -0.63324,0.32092 -0.63324,0.58984l0,13.60522l-2.51886,1.01523c-0.01001,0.00323 -0.02182,0.00323 -0.03183,0.00748l-15.66333,6.06c-0.36203,0.13919 -0.53891,0.42606 -0.43109,0.69751c0.10797,0.27142 0.47177,0.46014 0.88901,0.46014l3.06461,0l0,1.02115l-1.44202,0c-0.6091,0 -1.10452,0.33435 -1.10452,0.74466c0,0.40979 0.49542,0.74463 1.10452,0.74463l1.44202,0l0,0.68292l-1.44202,0c-0.6091,0 -1.10452,0.33383 -1.10452,0.745c0,0.41061 0.49542,0.74463 1.10452,0.74463l1.44202,0l0,2.04825c0,0.27383 0.32968,0.49576 0.73709,0.49576l3.6825,0c0.40616,0 0.73535,-0.22211 0.73535,-0.49576l0,-2.04825l1.68768,0c0.6091,0 1.10452,-0.33469 1.10452,-0.74463c0,-0.41031 -0.49515,-0.745 -1.10452,-0.745l-1.68768,0l0,-0.68292l1.68768,0c0.6091,0 1.10452,-0.33469 1.10452,-0.74463c0,-0.41113 -0.49515,-0.74466 -1.10452,-0.74466l-1.68768,0l0,-1.02115l6.91306,0l15.04156,30.31769l-8.20898,23.7326l-9.35522,14.46957c-0.05182,0.07962 -0.07117,0.16452 -0.07117,0.24823l-2.58377,0l0,1.82077l13.8093,0l0,-1.82077l-3.29544,0l14.45233,-13.90271l4.93109,0l14.27707,13.90271l-3.17728,0l0,1.82077l13.80853,0l0,-1.82077l-2.52213,0c0,-0.08444 -0.02011,-0.16861 -0.07169,-0.24823l-9.3497,-14.46167l-7.11627,-23.73761l14.06454,-30.32135l8.15616,0l0,1.02124l-1.44226,0c-0.60934,0 -1.10452,0.33429 -1.10452,0.74466c0,0.40979 0.49518,0.74463 1.10452,0.74463l1.44226,0l0,0.68286l-1.44226,0c-0.60934,0 -1.10452,0.33374 -1.10452,0.74506c0,0.41061 0.49518,0.74463 1.10452,0.74463l1.44226,0l0,2.04825c0,0.27383 0.32996,0.49576 0.73712,0.49576l3.68198,0c0.40741,0 0.73737,-0.22192 0.73737,-0.49576l0,-2.04825l1.68768,0c0.6091,0 1.10452,-0.33469 1.10452,-0.74463c0,-0.41031 -0.49542,-0.74506 -1.10452,-0.74506l-1.68768,0l0,-0.68286l1.68768,0c0.6091,0 1.10452,-0.33481 1.10452,-0.74463c0,-0.41098 -0.49542,-0.74466 -1.10452,-0.74466l-1.68768,0l0,-1.02124l2.08807,0l0,0.00177l-0.00024,0l-0.00003,0zm-65.25909,3.69012c0.20297,0 0.36844,0.11191 0.36844,0.2489c0,0.13681 -0.16547,0.24838 -0.36844,0.24838l-8.28561,0c-0.20282,0 -0.36911,-0.11157 -0.36911,-0.24838c0,-0.13699 0.16629,-0.2489 0.36911,-0.2489l8.28561,0zm0,-2.17252c0.20297,0 0.36844,0.11188 0.36844,0.24887c0,0.13681 -0.16547,0.24805 -0.36844,0.24805l-8.28561,0c-0.20282,0 -0.36911,-0.11124 -0.36911,-0.24805c0,-0.13699 0.16629,-0.24887 0.36911,-0.24887l8.28561,0zm64.86002,2.17252c0.20291,0 0.36853,0.11191 0.36853,0.2489c0,0.13681 -0.16562,0.24838 -0.36853,0.24838l-8.28748,0c-0.20319,0 -0.36743,-0.11157 -0.36743,-0.24838c0,-0.13699 0.16434,-0.2489 0.36743,-0.2489l8.28748,0zm0,-2.17252c0.20291,0 0.36853,0.11188 0.36853,0.24887c0,0.13681 -0.16562,0.24805 -0.36853,0.24805l-8.28748,0c-0.20319,0 -0.36743,-0.11124 -0.36743,-0.24805c0,-0.13699 0.16434,-0.24887 0.36743,-0.24887l8.28748,0zm-47.80069,52.10715l10.32614,-3.13828l9.86197,3.13828l-20.18811,0zm-2.88913,-0.21127l2.22168,-6.42502l9.24231,2.94125l-11.46399,3.48376l0,0zm6.40976,-18.5325l5.65329,1.87854l-7.13147,2.39514l1.47818,-4.27368l0,-0.00003l0,0.00003zm2.48291,-0.2818l9.60376,0l-4.77713,1.60406l-4.82663,-1.60406zm4.83017,2.71255l8.09497,2.69034l-8.16724,2.28918l-7.95068,-2.28598l8.02295,-2.69354zm-9.32901,3.39783l7.35672,2.1142l-8.95636,2.5108l1.59964,-4.625zm-1.03595,5.54272l10.28714,-2.88342l9.97229,2.86682l-10.38858,3.15707l-9.87085,-3.14047l0,0zm12.18866,-3.4158l7.3349,-2.05658l1.36621,4.55786l-8.70111,-2.50128l0,0l0,0zm-0.16626,-6.08087l5.71933,-1.92041l1.27249,4.2435l-6.99182,-2.32309l0,0zm-8.53067,-3.14944l0.93256,-2.69745l12.14066,0l0.80978,2.69745l-13.883,0zm3.20047,-12.39807l-6.58609,-0.98709l0.76712,-3.9426l5.81897,4.92966l0,0.00003zm13.67218,-5.42966l0.56543,4.38l-7.17343,1.01285l6.608,-5.39285l0,0zm-7.97256,6.50626l3.23636,7.3833l-10.64838,0l2.93469,-7.42535l1.65741,1.40298c0.13858,0.11716 0.34729,0.18597 0.56989,0.1875c0.00226,0 0.00351,0 0.00577,0c0.21878,0 0.42776,-0.06644 0.5676,-0.18039l1.67667,-1.36804l0,0l0,0zm-13.47583,-3.58383l-3.49109,-7.03641l4.17313,3.53378l-0.68204,3.50262zm7.49878,3.48175l-2.55988,6.47269l-3.67566,-7.40668l6.23526,0.93402l0,-0.00003l0.00003,0l0.00003,0l0.00003,0l0.00003,0l0.00003,0l0.00003,0l0.00003,0l0.00003,0l0.00003,0zm10.49524,6.90704l-3.03317,-6.9213l6.68069,-0.94318l-3.64755,7.86447l0.00003,0l0,0zm4.7923,-14.40274l3.03995,-2.48114l-2.62927,5.66721l-0.41071,-3.18607l0.00003,0zm4.20432,-4.98868l-15.74823,12.85074l-9.20712,-7.798l0,0l-6.01831,-5.09665l9.19958,-9.65436l3.08975,0l0,1.02118l-1.44177,0c-0.60983,0 -1.10501,0.33466 -1.10501,0.74463s0.49518,0.74463 1.10501,0.74463l1.44177,0l0,0.68326l-1.44177,0c-0.60983,0 -1.10501,0.3335 -1.10501,0.74466c0,0.41061 0.49518,0.74463 1.10501,0.74463l1.44177,0l0,2.04825c0,0.27383 0.32919,0.49579 0.73709,0.49579l3.6825,0c0.40588,0 0.73535,-0.22168 0.73535,-0.49579l0,-2.04825l1.68768,0c0.61035,0 1.10553,-0.33484 1.10553,-0.74463c0,-0.41031 -0.49542,-0.74466 -1.10553,-0.74466l-1.68768,0l0,-0.68326l1.68768,0c0.61035,0 1.10553,-0.33484 1.10553,-0.74463c0,-0.41098 -0.49542,-0.74463 -1.10553,-0.74463l-1.68768,0l0,-1.02118l3.4906,0l10.06216,9.64249l-0.02338,0.05576l0,0.00003zm-31.68359,-18.06561l-5.56937,6.38318l-1.7106,-3.4487l7.27997,-2.93448l0,0zm15.01868,-1.9082l-5.78909,8.05945l-5.87497,-7.5032l1.33508,-0.53833l10.32898,-0.0177l0,0l0,0l0,0l0,0l0,0l0,0l0,0l0,0l0,-0.00003l0,-0.00003l0,-0.00003l0,-0.00003l0,-0.00003l0,-0.00003l0,-0.00003zm11.53113,-0.02139l1.13818,0.44302l-5.69815,7.9635l-4.58328,-8.39023l9.14325,-0.0163zm-16.38446,9.05655l6.02765,-8.39023l4.58322,8.39023l-10.61087,0zm-7.90933,-7.75409l6.07202,7.75409l-12.83728,0l6.76526,-7.75409l0,0zm17.58853,10.51205c0.20184,0 0.36737,0.11191 0.36737,0.2489c0,0.13681 -0.16553,0.24805 -0.36737,0.24805l-8.28702,0c-0.20358,0 -0.36917,-0.11124 -0.36917,-0.24805c0,-0.13699 0.16559,-0.2489 0.36917,-0.2489l8.28702,0zm0,2.17255c0.20184,0 0.36737,0.11191 0.36737,0.2489c0,0.13681 -0.16553,0.24838 -0.36737,0.24838l-8.28702,0c-0.20358,0 -0.36917,-0.11157 -0.36917,-0.24838c0,-0.13699 0.16559,-0.2489 0.36917,-0.2489l8.28702,0zm8.94333,-12.7926l6.70923,7.86136l-12.33597,0l5.62674,-7.86136zm2.13266,0.50711l6.39557,2.49179c0.04236,0.02341 0.07535,0.0535 0.12445,0.07205l1.30884,0.49811l-1.83719,3.9592l-5.99167,-7.02115l0,0zm1.90625,-0.69022l-3.60324,-6.09561l4.37451,-1.10339l0,7.49893l-0.77127,-0.29993zm0.77112,-8.50314c-0.04941,0.00751 -0.09961,0.00424 -0.1467,0.0166l-3.28879,0.82959l3.43524,-3.1398l0,2.29361l0,0l0.00003,0l0.00003,0l0.00003,0l0.00003,0l0.00003,0l0.00003,0l0.00003,0l0.00003,0zm-5.93088,3.1264l2.58441,4.37372l-2.99396,-1.16681c-0.13983,-0.05457 -0.29926,-0.0834 -0.46149,-0.0834c-0.00125,0 -0.00125,0 -0.00226,0l-2.55157,0.00476l3.42474,-3.12827l-0.00003,0l0.00003,0l0.00003,0l0.00003,0l0.00003,0l0.00003,0zm-23.23456,3.16299c-0.16599,0 -0.32788,0.03085 -0.46997,0.08835l-2.91202,1.17426l2.64139,-4.46716l3.50119,3.19998l-2.76059,0.00458zm-2.7341,-5.02612l-3.75824,-0.94794l0,-2.48584l3.75824,3.43378l0,0zm-3.75824,0.37775l4.02234,1.01437l-3.51407,5.94556l-0.50702,0.20413l0,-7.16406l-0.00125,0l0,0zm-16.14484,14.90732l9.28107,-3.59128l1.78113,3.59128l-11.06198,0l-0.00003,0l0,0l-0.00003,0l0,0l-0.00003,0l0,0l-0.00003,0l0,0l-0.00003,0l0,0l-0.00003,0l0,0l-0.00003,0zm26.36417,1.24042l-8.38074,8.79541l-4.36273,-8.79541l12.7435,0l-0.00003,0zm-10.95163,68.1478l-4.00714,0l8.58725,-13.28165l9.22821,0l-13.80832,13.28165l0,0l0,0zm36.86639,0l-13.64053,-13.28165l9.24054,0l8.58713,13.28165l-4.18695,0l-0.00003,0l0,0l-0.00003,0l0,0l-0.00003,0l0,0l-0.00003,0l0,0l-0.00003,0l0,0l-0.00003,0zm-5.12778,-14.52298l-11.54694,-3.67468l9.76166,-2.96652l1.98923,6.6412l-0.20395,0l0,0zm3.31659,-45.1767l-8.81329,-8.4472l12.73242,0l-3.91913,8.4472zm8.12445,-13.35635l9.62207,3.66708l-11.32361,0l1.70154,-3.66708l0,0z" fill="#c6c6c6" id="svg_64" stroke="null"/>
  </g>
  <path transform="rotate(89.8829, 73, 380.334)" d="m2.20556,380.33334l30.34049,-58.19794l80.90795,0l30.34048,58.19794l-30.34048,58.19794l-80.90795,0l-30.34049,-58.19794z" stroke-linecap="null" stroke-linejoin="null" stroke-dasharray="null" stroke-width="5" fill="#F1F1F1" stroke="null" id="svg_1"/>
  <g stroke="null" id="svg_25">
   <path d="m49,390.20001l0,29.20676c0,2.71643 2.2015,4.92657 4.90733,4.92657l35.51867,0c2.70583,0 4.90733,-2.21011 4.90733,-4.92657l0,-29.20676l-45.33333,0z" fill="#81c225" stroke="null" id="svg_6"/>
   <path d="m94.33334,387.35556l0,-37.74008c0,-2.71646 -2.2015,-4.92657 -4.90733,-4.92657l-9.25933,0l0,-5.6889l-17,0l0,5.6889l-9.25933,0c-2.70583,0 -4.90733,2.21011 -4.90733,4.92657l0,37.74008l45.33333,0l-0.00001,0zm-42.5,-37.74008c0,-1.14917 0.92933,-2.08215 2.074,-2.08215l9.25933,0l17,0l9.25933,0c1.14467,0 2.074,0.93298 2.074,2.08215l0,34.89563l-39.66667,0l0,-34.89563l0.00001,0z" fill="#81c225" stroke="null" id="svg_7"/>
  </g>
  <g class="flowline1" stroke-width="4" transform="rotate(-32.9322, 338.334, 180.332)" stroke="black" id="svg_33">
   <path d="m312.85379,180.33337l50.95908,0" stroke="#c6c6c6" id="svg_34"/>
  </g>
  <text stroke="null" xml:space="preserve" text-anchor="middle" font-size="24" y="32.5" x="71.71875" stroke-width="0" fill="#c6c6c6" id="svg_40">N/A</text>
  <text id="svg_29" stroke="null" xml:space="preserve" text-anchor="middle" font-size="24" y="483.5" x="71.71875" stroke-width="0" fill="#81C225">N/A</text>
  <text id="svg_66" stroke="null" xml:space="preserve" text-anchor="middle" font-size="24" y="26.5" x="431.71875" stroke-width="0" fill="#C6C6C6">N/A</text>
  <text id="svg_62" stroke="null" xml:space="preserve" text-anchor="middle" font-size="24" y="483.5" x="431.71875" stroke-width="0" fill="#c6c6c6">N/A</text>
 </g>
</svg>